<svg xmlns="http://www.w3.org/2000/svg" viewBox="0 0 69 38" width="69" height="38"><path fill="navy" d="M22.232 36.207c.833 0
1.501-.218 2.005-.655.503-.437.835-1.028.995-1.775l-1.28-.26c-.094.507-.289.902-.585
1.185-.297.283-.672.425-1.125.425-.634 0-1.125-.243-1.475-.73-.35-.487-.525-1.13-.525-1.93
0-.807.173-1.448.52-1.925.346-.477.83-.715 1.45-.715.48 0 .866.147 1.16.44.293.293.47.697.53
1.21l1.32-.19c-.1-.773-.404-1.387-.91-1.84-.507-.453-1.194-.68-2.06-.68-.7 0-1.3.155-1.8.465-.5.31-.882.743-1.145
1.3-.264.557-.395 1.205-.395 1.945 0 .733.123 1.38.37 1.94a2.9 2.9 0 001.12 1.315c.5.317 1.11.475 1.83.475zm6.31-.05c.48
0 .905-.103 1.275-.31.37-.207.658-.508.865-.905.206-.397.31-.868.31-1.415s-.104-1.017-.31-1.41a2.118 2.118 0
00-.865-.895 2.608 2.608 0 00-1.275-.305c-.48 0-.905.102-1.275.305-.37.203-.659.502-.865.895-.207.393-.31.863-.31 1.41 0
.547.103 1.018.31 1.415.206.397.495.698.865.905.37.207.795.31 1.275.31zm0-.91c-.394
0-.697-.147-.91-.44-.214-.293-.32-.72-.32-1.28s.106-.983.32-1.27c.213-.287.516-.43.91-.43.393 0
.695.143.905.43.21.287.315.71.315 1.27 0 .567-.107.995-.32 1.285-.214.29-.514.435-.9.435zm5.88.79l1.78-5h-1.26l-.97
3.17c-.08.253-.14.5-.18.74h-.03c-.04-.24-.1-.487-.18-.74l-.98-3.17h-1.26l1.78 5h1.3zm3.33 0l.64-1.87h2.78l.64
1.87h1.31l-2.64-7.1h-1.4l-2.64 7.1h1.31zm3.08-2.85h-2.1l.83-2.4c.08-.233.15-.487.21-.76h.02c.06.273.13.527.21.76l.83
2.4zm4.46 4.8v-2.67c.14.26.336.465.59.615.253.15.55.225.89.225.406 0 .766-.107
1.08-.32.313-.213.556-.52.73-.92.173-.4.26-.863.26-1.39 0-.52-.084-.977-.25-1.37a2.105 2.105 0 00-.705-.915 1.767 1.767
0 00-1.055-.325c-.36 0-.679.085-.955.255-.277.17-.492.415-.645.735v-.87h-1.14v6.95h1.2zm1.13-2.75a.999.999 0
01-.845-.425c-.21-.283-.315-.665-.315-1.145v-.25c0-.5.103-.888.31-1.165.206-.277.493-.415.86-.415.366 0
.651.148.855.445.203.297.305.712.305 1.245 0 .533-.105.952-.315 1.255a.989.989 0 01-.855.455zm4.81
2.75v-2.67c.14.26.336.465.59.615.253.15.55.225.89.225.406 0 .766-.107
1.08-.32.313-.213.556-.52.73-.92.173-.4.26-.863.26-1.39 0-.52-.084-.977-.25-1.37a2.105 2.105 0 00-.705-.915 1.767 1.767
0 00-1.055-.325c-.36 0-.679.085-.955.255-.277.17-.492.415-.645.735v-.87h-1.14v6.95h1.2zm1.13-2.75a.999.999 0
01-.845-.425c-.21-.283-.315-.665-.315-1.145v-.25c0-.5.103-.888.31-1.165.206-.277.493-.415.86-.415.366 0
.651.148.855.445.203.297.305.712.305 1.245 0 .533-.105.952-.315 1.255a.989.989 0 01-.855.455z"/><path d="M57.922
9.406h2.203v-.963h-5.334v.963h2.169v8.305h.962zm-7.885 8.305V8.443h1.009v9.268zM34.66 14.1l-1.508-3.695-1.507
3.695h3.015m.383.963H31.25l-1.079 2.612h-1.078l3.942-9.269.198-.445.197.445 3.827
9.269h-1.079l-1.136-2.612zm8.732-1.565l2.168 4.213h-1.16l-2.006-4.056h-1.356v4.056h-1.01V8.443h2.355c1.472 0 2.818.686
2.818 2.563.011 1.493-.882 2.215-1.81 2.492m-2.353-4.092v3.334h1.24c1.16 0 1.937-.566 1.937-1.721
0-1.168-.928-1.601-1.937-1.601h-1.24v-.012zm22.299
8.305h4.801v-.963h-3.827v-3.647h3.282v-.927h-3.282V9.406h3.711v-.963H63.72zm2.83-12.639l-1.438 2.047.626.325
1.774-1.89zM20.28 12.21h3.05v.963h-3.05v4.538h-.974V8.443h.974zm4.407 5.501V8.443h.963v9.268zM15.41
9.165c-.777-.602-1.658-.879-2.632-.879-2.9 0-4.72 2.251-4.72 4.851s1.82 4.779 4.72 4.779c.927 0 1.855-.325
2.632-.879v-1.24c-.696.722-1.658 1.204-2.667 1.204-2.169 0-3.595-1.842-3.595-3.888 0-2.01 1.392-3.888 3.56-3.888 1.009 0
1.971.445 2.702 1.204V9.165z" fill="#000"/><path fill="#878787" d="M0 13.04C0 5.844 5.645 0 12.787 0c3.11 0 5.99 1.15
8.213 3.082v2.016c-2.039-2.217-4.919-3.64-8.144-3.64-6.255 0-11.14 5.133-11.14 11.5 0 6.366 4.873 11.499 11.14 11.499
3.225 0 6.105-1.387 8.144-3.64v2.099c-2.223 1.932-5.069 3.082-8.213 3.082C5.645 26.128 0 20.272 0 13.04z"/><g
fill="#878787"><path d="M22.798 21.845c-.497 0-.775-.357-.775-.952v-1.274h.312v1.226c0 .393.15.631.463.631.347 0
.497-.202.497-.595v-1.274h.312v1.274c0
.607-.312.964-.81.964zm2.694-.035l-.844-1.346c-.035-.083-.116-.202-.15-.274v1.62h-.313v-2.143h.312l.81
1.31c.034.083.15.237.196.32V19.68h.312v2.14l-.323-.011zm.89 0v-2.179h.3v2.179zm1.85 0h-.347l-.729-2.143h.347l.428
1.393c.035.119.116.321.116.392 0-.083.08-.273.115-.392l.428-1.393h.347l-.705 2.143zm1.19
0v-2.179h1.353v.309h-1.04v.56h.612v.321h-.612v.667h1.075v.322zm2.81-1.87h-.613v.715h.613c.196 0
.347-.12.347-.357.046-.238-.116-.358-.347-.358zm.231 1l.428.87h-.347l-.428-.87h-.462v.87h-.312v-2.143h.924c.382 0
.694.202.694.63-.035.322-.22.56-.497.643zm1.619.905c-.313 0-.578-.119-.729-.357l.231-.238a.76.76 0 00.544.238c.312 0
.428-.119.428-.321 0-.155-.116-.238-.463-.357-.462-.12-.659-.239-.659-.631 0-.358.312-.596.694-.596.266 0
.497.12.693.274l-.23.238c-.116-.155-.267-.202-.498-.202-.231 0-.347.119-.347.274 0
.154.081.238.463.321.428.12.659.274.659.631-.012.452-.243.726-.786.726zm1.318-.035v-2.179h.3v2.179zm1.734-1.87v1.87h-.312v-1.87h-.613v-.309h1.538v.309zm2.15-.428c-.115
0-.196-.083-.196-.202 0-.12.08-.203.196-.203s.197.083.197.203c0
.083-.081.202-.197.202zm-.15.988c-.035-.155-.15-.393-.15-.512a4.437 4.437 0
00-.15.512l-.151.476h.659l-.208-.476zm-.428-.988c-.116 0-.196-.083-.196-.202 0-.12.08-.203.196-.203s.197.083.197.203c0
.083-.116.202-.197.202zm.89 2.298l-.196-.512h-.844l-.197.512h-.312l.775-2.143h.347l.774
2.143h-.347zm1.584-1.87v1.87h-.312v-1.87h-.613v-.309h1.538v.309zm1.653 1.905c-.312
0-.578-.119-.728-.357l.231-.238a.76.76 0 00.544.238c.312 0 .427-.119.427-.321
0-.155-.115-.238-.462-.357-.462-.12-.659-.239-.659-.631 0-.358.312-.596.694-.596.266 0
.497.12.693.274l-.23.238c-.116-.155-.267-.202-.498-.202-.231 0-.347.119-.347.274 0
.154.081.238.463.321.427.12.659.274.659.631-.012.452-.243.726-.787.726zm2.857-.035v-1.548c-.036.083-.082.202-.151.357l-.497
1.226-.497-1.226c-.035-.119-.116-.274-.15-.357v1.548h-.313v-2.143h.312l.463
1.154c.034.12.115.274.15.358.035-.084.08-.239.15-.358l.463-1.154h.347v2.143h-.278zm.924
0v-2.179h1.341v.309h-1.04v.56h.578v.321h-.578v.667h1.086v.322zm2.463-1.87h-.266v1.548h.266c.497 0 .693-.321.693-.75
0-.476-.196-.798-.693-.798zm0 1.87h-.578v-2.143h.578c.578 0 1.04.321 1.04 1.071s-.497 1.072-1.04 1.072zm1.503
0v-2.179h.312v2.179zm.844 0v-.322l1.04-1.274c.081-.083.197-.238.231-.274h-1.202v-.32h1.538v.32l-1.006
1.274c-.081.084-.197.238-.232.274h1.238v.322h-1.607zm2.162 0v-2.179h.312v2.179zm2.196
0l-.844-1.346c-.035-.083-.115-.202-.15-.274v1.62h-.312v-2.143h.312l.81
1.31c.034.083.15.237.196.32V19.68h.312v2.14l-.324-.011zm2.659-1.036h-.578v.714h.578c.266 0
.382-.155.382-.357-.035-.19-.15-.357-.382-.357zm-.034-.834h-.578v.56h.578c.196 0 .312-.119.312-.274
0-.155-.081-.286-.312-.286zm0 1.87h-.844v-2.143h.844c.346 0 .612.202.612.56 0
.237-.115.356-.266.44.15.035.347.202.347.512 0 .392-.231.63-.693.63zm1.225
0v-2.179h1.353v.309h-1.041v.56h.613v.321h-.613v.667h1.075v.322zm2.821-1.87h-.613v.715h.613c.197 0 .347-.12.347-.357
0-.238-.116-.358-.347-.358zm.231 1l.428.87h-.347l-.428-.87h-.462v.87h-.312v-2.143h.925c.381 0
.693.202.693.63-.034.322-.23.56-.497.643zm.995.87v-2.179h.312v1.857h1.04v.322zm1.849 0v-2.179h.312v2.179zm2.197
0l-.844-1.346c-.035-.083-.116-.202-.15-.274v1.62h-.312v-2.143h.312l.809
1.31c.035.083.15.237.197.32V19.68h.312v2.14l-.324-.011z"/><path d="M22.798 21.845c-.497
0-.775-.357-.775-.952v-1.274h.312v1.226c0 .393.15.631.463.631.347 0 .497-.202.497-.595v-1.274h.312v1.274c0
.607-.312.964-.81.964zm2.694-.035l-.844-1.346c-.035-.083-.116-.202-.15-.274v1.62h-.313v-2.143h.312l.81
1.31c.034.083.15.237.196.32V19.68h.312v2.14l-.323-.011zm.89 0v-2.179h.3v2.179zm1.85 0h-.347l-.729-2.143h.347l.428
1.393c.035.119.116.321.116.392 0-.083.08-.273.115-.392l.428-1.393h.347l-.705 2.143zm1.19
0v-2.179h1.353v.309h-1.04v.56h.612v.321h-.612v.667h1.075v.322zm2.81-1.87h-.613v.715h.613c.196 0
.347-.12.347-.357.046-.238-.116-.358-.347-.358zm.231 1l.428.87h-.347l-.428-.87h-.462v.87h-.312v-2.143h.924c.382 0
.694.202.694.63-.035.322-.22.56-.497.643zm1.619.905c-.313 0-.578-.119-.729-.357l.231-.238a.76.76 0 00.544.238c.312 0
.428-.119.428-.321 0-.155-.116-.238-.463-.357-.462-.12-.659-.239-.659-.631 0-.358.312-.596.694-.596.266 0
.497.12.693.274l-.23.238c-.116-.155-.267-.202-.498-.202-.231 0-.347.119-.347.274 0
.154.081.238.463.321.428.12.659.274.659.631-.012.452-.243.726-.786.726zm1.318-.035v-2.179h.3v2.179zm1.734-1.87v1.87h-.312v-1.87h-.613v-.309h1.538v.309zm2.15-.428c-.115
0-.196-.083-.196-.202 0-.12.08-.203.196-.203s.197.083.197.203c0
.083-.081.202-.197.202zm-.15.988c-.035-.155-.15-.393-.15-.512a4.437 4.437 0
00-.15.512l-.151.476h.659l-.208-.476zm-.428-.988c-.116 0-.196-.083-.196-.202 0-.12.08-.203.196-.203s.197.083.197.203c0
.083-.116.202-.197.202zm.89 2.298l-.196-.512h-.844l-.197.512h-.312l.775-2.143h.347l.774
2.143h-.347zm1.584-1.87v1.87h-.312v-1.87h-.613v-.309h1.538v.309zm1.653 1.905c-.312
0-.578-.119-.728-.357l.231-.238a.76.76 0 00.544.238c.312 0 .427-.119.427-.321
0-.155-.115-.238-.462-.357-.462-.12-.659-.239-.659-.631 0-.358.312-.596.694-.596.266 0
.497.12.693.274l-.23.238c-.116-.155-.267-.202-.498-.202-.231 0-.347.119-.347.274 0
.154.081.238.463.321.427.12.659.274.659.631-.012.452-.243.726-.787.726zm2.857-.035v-1.548c-.036.083-.082.202-.151.357l-.497
1.226-.497-1.226c-.035-.119-.116-.274-.15-.357v1.548h-.313v-2.143h.312l.463
1.154c.034.12.115.274.15.358.035-.084.08-.239.15-.358l.463-1.154h.347v2.143h-.278zm.924
0v-2.179h1.341v.309h-1.04v.56h.578v.321h-.578v.667h1.086v.322zm2.463-1.87h-.266v1.548h.266c.497 0 .693-.321.693-.75
0-.476-.196-.798-.693-.798zm0 1.87h-.578v-2.143h.578c.578 0 1.04.321 1.04 1.071s-.497 1.072-1.04 1.072zm1.503
0v-2.179h.312v2.179zm.844 0v-.322l1.04-1.274c.081-.083.197-.238.231-.274h-1.202v-.32h1.538v.32l-1.006
1.274c-.081.084-.197.238-.232.274h1.238v.322h-1.607zm2.162 0v-2.179h.312v2.179zm2.196
0l-.844-1.346c-.035-.083-.115-.202-.15-.274v1.62h-.312v-2.143h.312l.81
1.31c.034.083.15.237.196.32V19.68h.312v2.14l-.324-.011zm2.659-1.036h-.578v.714h.578c.266 0
.382-.155.382-.357-.035-.19-.15-.357-.382-.357zm-.034-.834h-.578v.56h.578c.196 0 .312-.119.312-.274
0-.155-.081-.286-.312-.286zm0 1.87h-.844v-2.143h.844c.346 0 .612.202.612.56 0
.237-.115.356-.266.44.15.035.347.202.347.512 0 .392-.231.63-.693.63zm1.225
0v-2.179h1.353v.309h-1.041v.56h.613v.321h-.613v.667h1.075v.322zm2.821-1.87h-.613v.715h.613c.197 0 .347-.12.347-.357
0-.238-.116-.358-.347-.358zm.231 1l.428.87h-.347l-.428-.87h-.462v.87h-.312v-2.143h.925c.381 0
.693.202.693.63-.034.322-.23.56-.497.643zm.995.87v-2.179h.312v1.857h1.04v.322zm1.849 0v-2.179h.312v2.179zm2.197
0l-.844-1.346c-.035-.083-.116-.202-.15-.274v1.62h-.312v-2.143h.312l.809
1.31c.035.083.15.237.197.32V19.68h.312v2.14l-.324-.011z"/></g></svg>
