<svg xmlns="http://www.w3.org/2000/svg" viewBox="0 0 56 56"><path fill="#003F97" d="M43.29 53.09H10.42V11.55h5.14v2.17h-1.83c-.68 0-1.14.46-1.14 1.14v34.92c0 .68.46 1.14 1.14 1.14h26.25c.68 0 1.14-.46 1.14-1.14V14.86c0-.68-.46-1.14-1.14-1.14h-1.83v-2.17h5.14V53.1zM15.56 16s.11.69 1.14.92h20.31c.8-.12 1.03-.69 1.03-.8V16h.68v32.63H14.76V16h.8zm2.28-7.64h3.65c.69 0 1.49-.34 1.94-.8.57-.57.8-1.37.8-2.17 0-1.6 1.49-2.85 3.08-2.5.92.1 1.6.8 1.94 1.7.12.35.12.57.12.92 0 .68.23 1.37.8 1.94.57.57 1.25.91 2.05.91h3.65v6.28H17.84V8.36zm26.59.91h-6.28V7.22c0-.69-.45-1.14-1.14-1.14h-4.79a.87.87 0 01-.46-.23c-.11-.11-.11-.23-.11-.34 0-.57-.12-1.14-.23-1.71A4.94 4.94 0 0027.77.6h-.91a4.85 4.85 0 00-4.8 4.9c0 .24-.11.35-.22.46-.12.12-.23.12-.35.12H16.7c-.68 0-1.14.45-1.14 1.14v2.05H9.28c-.68 0-1.14.46-1.14 1.14v43.82c0 .68.46 1.14 1.14 1.14h35.26c.69 0 1.14-.45 1.14-1.14V10.41c-.11-.68-.57-1.14-1.25-1.14z"/><path fill="#FF5E59" d="M18.67 30.64h16.3c.68 0 1.14-.46 1.14-1.15s-.46-1.16-1.14-1.16h-16.3c-.68 0-1.14.46-1.14 1.16s.57 1.16 1.14 1.16m-.06-6.74h8.33c.68 0 1.14-.46 1.14-1.16s-.46-1.16-1.14-1.16H18.6c-.69 0-1.15.47-1.15 1.16 0 .58.57 1.16 1.15 1.16m.06 13.6h16.3c.68 0 1.14-.46 1.14-1.15s-.46-1.16-1.14-1.16h-16.3c-.68 0-1.14.47-1.14 1.16s.57 1.16 1.14 1.16m0 6.8h16.3c.68 0 1.14-.46 1.14-1.16s-.46-1.15-1.14-1.15h-16.3c-.68 0-1.14.46-1.14 1.15 0 .58.57 1.16 1.14 1.16"/></svg>