<svg xmlns="http://www.w3.org/2000/svg" width="54" height="34">
  <path d="M45.27 20.333c4.614 0 8.378 3.538 8.573 7.972l.008.362V32c0 .92-.769 1.667-1.716 1.667-.88 0-1.606-.644-1.705-1.473L50.418 32v-3.333c0-2.663-2.143-4.84-4.846-4.992l-.303-.008H31.54c-2.743 0-4.985 2.081-5.141 4.706l-.009.294V32c0 .92-.768 1.667-1.716 1.667-.88 0-1.606-.644-1.705-1.473L22.956 32v-3.333c0-4.482 3.643-8.137 8.21-8.326l.372-.008H45.27zm-6.866-20c4.74 0 8.581 3.731 8.581 8.334 0 4.602-3.842 8.333-8.581 8.333-4.74 0-8.582-3.731-8.582-8.333 0-4.603 3.842-8.334 8.582-8.334zm0 3.334c-2.844 0-5.15 2.238-5.15 5 0 2.761 2.306 5 5.15 5 2.843 0 5.149-2.239 5.149-5 0-2.762-2.306-5-5.15-5zM19.32 10.75h-7.68v-7.5c0-.69-.572-1.25-1.28-1.25-.708 0-1.28.56-1.28 1.25v7.5H1.4c-.708 0-1.28.56-1.28 1.25s.572 1.25 1.28 1.25h7.68v7.5c0 .69.572 1.25 1.28 1.25.708 0 1.28-.56 1.28-1.25v-7.5h7.68c.708 0 1.28-.56 1.28-1.25s-.572-1.25-1.28-1.25" fill="navy" fill-rule="evenodd"/>
</svg>
