<svg xmlns="http://www.w3.org/2000/svg" width="42" height="42">
  <g fill="none" fill-rule="evenodd" transform="translate(1 1)">
    <rect width="39.967" height="40" x=".033" fill="#FFFAF9" stroke="#FFD2C3" stroke-width="2" rx="6"/>
    <path fill="navy" d="M24.21 9.474c.582 0 1.053.471 1.053 1.052 0 .54-.406.985-.93 1.046l-.122.007H12.63c-.54 0-.984.406-1.045.93l-.007.123v14.736c0 .54.406.985.93 1.046l.123.007h14.736c.54 0 .985-.406 1.046-.93l.007-.123V20c0-.581.471-1.053 1.053-1.053.54 0 .984.407 1.045.93l.007.123v7.368c0 1.682-1.314 3.057-2.972 3.153l-.186.005H12.632c-1.682 0-3.057-1.314-3.153-2.972l-.005-.186V12.632c0-1.682 1.314-3.057 2.972-3.153l.186-.005H24.21zm7.06 2.413c.38.38.41.977.088 1.39l-.087.099-10.527 10.526c-.38.38-.976.409-1.39.088l-.098-.088-3.158-3.158c-.411-.41-.411-1.077 0-1.488.38-.38.976-.409 1.39-.088l.098.088L20 21.668l9.782-9.78c.411-.412 1.078-.412 1.489 0z"/>
  </g>
</svg>
