<svg xmlns="http://www.w3.org/2000/svg" width="40" height="40" viewBox="0 0 40 40">
    <path fill="navy" fill-rule="evenodd" d="M28.643 0c3.297 0 5.979 2.628 5.979 5.882 0 1.326-.445 2.547-1.195 3.53h5.397c.65 0 1.176.526 1.176 1.176V20c0 .65-.527 1.176-1.176 1.176h-2.186v17.648c0 .603-.454 1.1-1.039 1.168l-.137.008H5.21c-.603 0-1.1-.454-1.168-1.04l-.008-.136-.001-17.648H1.176c-.609 0-1.11-.462-1.17-1.056L0 20v-9.412c0-.65.527-1.176 1.176-1.176h5.397c-.75-.983-1.195-2.204-1.195-3.53C5.378 2.628 8.06 0 11.357 0c3.439 0 6.03 2.031 7.868 5.307.286.508.544 1.031.776 1.562.23-.531.488-1.054.774-1.562C22.613 2.03 25.204 0 28.643 0zM19.16 21.176H6.386v16.471h12.773V21.176zm15.126 0H21.512v16.471h12.773V21.176zm-15.126-9.412H2.353v7.06l16.806-.001v-7.059zm18.488 0H21.512v7.059h16.135v-7.058zm-26.29-9.411c-2.008 0-3.626 1.585-3.626 3.53 0 1.943 1.618 3.529 3.626 3.529h7.096l-.153-.449c-.244-.687-.533-1.369-.867-2.021l-.26-.484C15.71 3.851 13.8 2.353 11.357 2.353zm17.286 0c-2.442 0-4.353 1.498-5.816 4.105-.536.955-.968 1.988-1.302 3.021l.022-.068h7.096c1.87 0 3.4-1.374 3.603-3.132l.017-.19.006-.207c0-1.944-1.618-3.53-3.626-3.53z"/>
</svg>
