<svg xmlns="http://www.w3.org/2000/svg" viewBox="0 0 56 56"><path fill="#003F90" d="M52 21.5c0-.1 0-.2-.1-.3V21l-4.4-7.8c-.2-.3-.5-.5-.9-.5h-6.3V5c0-.6-.4-1-1-1H16.7c-.6 0-1 .4-1 1v7.7H9.4c-.4 0-.7.2-.9.5L4.1 21v.2c-.1.1-.1.2-.1.3V51c0 .6.4 1 1 1h46c.6 0 1-.4 1-1V21.5z"/><path fill="#FFF" d="M40.3 50H50V22.5h-9.7zm0-35.3H46l3.3 5.8h-9zm-2 35.3H35V34c0-.6-.4-1-1-1H22c-.6 0-1 .4-1 1v16h-3.3V6h20.5l.1 44z"/><path fill="#FFF" d="M23 50h10V35H23zm-7.3-29.5h-9l3.3-5.8h5.7zM6 50h9.7V22.5H6z"/><path fill="#FF5E59" d="M23.95 14.71h3.09v3.1c0 .6.4 1 1 1s1-.4 1-1v-3.1h3.08c.6 0 1-.4 1-1 0-.59-.4-.99-1-.99h-3.09V9.63c0-.6-.4-1-1-1s-1 .4-1 1v3.09h-3.08c-.6 0-1 .4-1 1s.4 1 1 1"/><path fill="#003F90" d="M43.66 28.07h2.91c.6 0 1-.4 1-1s-.4-1-1-1h-2.9c-.6 0-1 .4-1 1s.4 1 1 1m0 6.16h2.9c.6 0 1-.4 1-1 0-.61-.4-1.01-1-1.01h-2.9c-.6 0-1 .4-1 1s.4 1 1 1m0 6.1h2.9c.6 0 1-.4 1-1.01s-.4-1-1-1h-2.9c-.6 0-1 .4-1 1s.4 1 1 1m2.9 4.08h-2.9c-.6 0-1 .4-1 1s.4 1 1 1h2.9c.6 0 1-.4 1-1s-.5-1-1-1M9.43 28.07h2.9c.6 0 1-.4 1-1s-.4-1-1-1h-2.9c-.6 0-1 .4-1 1s.5 1 1 1m0 6.16h2.9c.6 0 1-.4 1-1 0-.61-.4-1.01-1-1.01h-2.9c-.6 0-1 .4-1 1s.5 1 1 1m0 6.1h2.9c.6 0 1-.4 1-1.01s-.4-1-1-1h-2.9c-.6 0-1 .4-1 1s.5 1 1 1m0 6.09h2.9c.6 0 1-.4 1-1s-.4-1-1-1h-2.9c-.6 0-1 .4-1 1s.5 1 1 1m11.96-21.17h13.22c.6 0 1-.4 1-1s-.4-1-1-1H21.39c-.6 0-1 .4-1 1s.4 1 1 1m0 5.4h13.22c.6 0 1-.4 1-1s-.4-1-1-1H21.39c-.6 0-1 .4-1 1s.4 1 1 1"/></svg>