<svg xmlns="http://www.w3.org/2000/svg" width="40" height="40" viewBox="0 0 40 40">
    <path fill="#003F90" fill-rule="evenodd" d="M38.582.025c.404-.088.79.046 1.057.304l.016.016.018.018.054.06-.072-.078c.035.034.067.07.097.108.024.03.047.063.068.097l.011.019c.148.24.21.536.146.843l-.005.022c-.01.044-.023.087-.038.131l.02-.063-.015.049-.005.014-13.177 37.647c-.352 1.006-1.752 1.063-2.185.09l-7.346-16.53L.699 15.429c-.928-.412-.92-1.702-.048-2.128l.137-.057L38.435.066h.002l.049-.017.072-.02h.01zm-2.573 5.629L19.52 22.143l5.996 13.491L36.01 5.654zm-1.662-1.666L4.365 14.482l13.491 5.997L34.347 3.988z"/>
</svg>
