<?xml version="1.0" encoding="utf-8"?>
<!-- Generator: Adobe Illustrator 24.1.2, SVG Export Plug-In . SVG Version: 6.00 Build 0)  -->
<svg version="1.1" id="Ebene_1" xmlns="http://www.w3.org/2000/svg" xmlns:xlink="http://www.w3.org/1999/xlink" x="0px" y="0px"
	 viewBox="0 0 622.1 119.9" style="enable-background:new 0 0 622.1 119.9;" xml:space="preserve">
<style type="text/css">
	.st0{fill:#E30613;}
	.st1{font-family:'ArialMT';}
	.st2{font-size:34px;}
</style>
<g>
	<path class="st0" d="M21.2,45.5h29.5V16h29.5v29.5h29.5v29.5H80.3v29.5H50.7V75.1H21.2V45.5z"/>
	<g>
		<path d="M132.9,15.8h10.6c6.3,0,11.1,4,11.1,12.1c0,7.1-3.6,12.4-11.1,12.4h-10.6V15.8z M138.2,35.8h4.8c3.1,0,6.1-1.9,6.1-7.3
			c0-4.9-1.7-8.1-7.1-8.1h-3.8V35.8z"/>
		<path d="M161.5,32.6c0.1,3.1,1.6,4.5,4.4,4.5c2,0,3.5-1.2,3.8-2.3h4.3c-1.4,4.2-4.3,6-8.3,6c-5.6,0-9.1-3.8-9.1-9.3
			c0-5.3,3.7-9.4,9.1-9.4c6,0,8.9,5.1,8.6,10.5H161.5z M169.4,29.6c-0.4-2.5-1.5-3.8-3.9-3.8c-3.1,0-4,2.4-4,3.8H169.4z"/>
		<path d="M193.8,40.3h-4.6v-2.5H189c-1.2,2-3.4,2.9-5.4,2.9c-5.2,0-6.5-2.9-6.5-7.3V22.6h4.9v10c0,2.9,0.9,4.4,3.1,4.4
			c2.6,0,3.8-1.5,3.8-5.1v-9.3h4.9V40.3z"/>
		<path d="M203.9,22.6h3.6v3.3h-3.6v8.8c0,1.6,0.4,2.1,2.1,2.1c0.5,0,1,0,1.5-0.1v3.8c-0.8,0.1-1.9,0.2-2.8,0.2
			c-3,0-5.6-0.7-5.6-4.2V25.9H196v-3.3h2.9v-5.3h4.9V22.6z"/>
		<path d="M213.8,34.6c0,2.1,1.8,3,3.7,3c1.4,0,3.2-0.5,3.2-2.3c0-1.5-2-2-5.5-2.7c-2.8-0.6-5.6-1.6-5.6-4.7c0-4.5,3.9-5.7,7.7-5.7
			c3.9,0,7.4,1.3,7.8,5.7h-4.6c-0.1-1.9-1.6-2.4-3.3-2.4c-1.1,0-2.7,0.2-2.7,1.6c0,1.7,2.7,2,5.5,2.6c2.8,0.7,5.6,1.7,5.6,5
			c0,4.7-4,6.2-8.1,6.2c-4.1,0-8.1-1.5-8.3-6.2H213.8z"/>
		<path d="M240.3,28.8c-0.3-2-1.6-3.1-3.6-3.1c-3.1,0-4.1,3.2-4.1,5.8c0,2.5,1,5.6,4,5.6c2.3,0,3.6-1.4,3.9-3.6h4.7
			c-0.6,4.7-3.9,7.3-8.5,7.3c-5.3,0-8.9-3.8-8.9-9.1c0-5.5,3.3-9.6,9.1-9.6c4.2,0,8,2.2,8.3,6.7H240.3z"/>
		<path d="M247.9,15.8h4.9v9.2h0.1c1.2-2,3.4-2.9,5.2-2.9c5.2,0,6.5,2.9,6.5,7.3v10.9h-4.9v-10c0-2.9-0.9-4.4-3.1-4.4
			c-2.6,0-3.8,1.5-3.8,5.1v9.3h-4.9V15.8z"/>
		<path d="M272,32.6c0.1,3.1,1.6,4.5,4.4,4.5c2,0,3.5-1.2,3.8-2.3h4.3c-1.4,4.2-4.3,6-8.3,6c-5.6,0-9-3.8-9-9.3c0-5.3,3.7-9.4,9-9.4
			c6,0,8.9,5.1,8.6,10.5H272z M279.9,29.6c-0.4-2.5-1.5-3.8-3.9-3.8c-3.1,0-4,2.4-4,3.8H279.9z"/>
		<path d="M291.5,34.6c0,2.1,1.8,3,3.7,3c1.4,0,3.2-0.5,3.2-2.3c0-1.5-2-2-5.5-2.7c-2.8-0.6-5.6-1.6-5.6-4.7c0-4.5,3.9-5.7,7.7-5.7
			c3.9,0,7.4,1.3,7.8,5.7h-4.6c-0.1-1.9-1.6-2.4-3.3-2.4c-1.1,0-2.7,0.2-2.7,1.6c0,1.7,2.7,2,5.5,2.6c2.8,0.7,5.6,1.7,5.6,5
			c0,4.7-4,6.2-8.1,6.2c-4.1,0-8.1-1.5-8.3-6.2H291.5z"/>
		<path d="M132.9,47.9h13.2c4.4,0,7.2,3.1,7.2,6.8c0,2.9-1.2,5-3.9,6.1v0.1c2.6,0.7,3.4,3.3,3.6,5.7c0.1,1.5,0.1,4.4,1,5.8h-5.4
			c-0.7-1.5-0.6-3.9-0.9-5.9c-0.4-2.6-1.4-3.7-4.1-3.7h-5.4v9.6h-5.4V47.9z M138.3,59h5.9c2.4,0,3.7-1,3.7-3.5
			c0-2.4-1.3-3.4-3.7-3.4h-5.9V59z"/>
		<path d="M165.3,54.2c5.6,0,9.2,3.7,9.2,9.4c0,5.6-3.6,9.3-9.2,9.3c-5.6,0-9.2-3.7-9.2-9.3C156.2,57.9,159.8,54.2,165.3,54.2z
			 M165.3,69.2c3.3,0,4.3-2.8,4.3-5.7c0-2.8-1-5.7-4.3-5.7c-3.3,0-4.3,2.8-4.3,5.7C161,66.4,162,69.2,165.3,69.2z"/>
		<path d="M183.8,54.7h3.6v3.3h-3.6v8.8c0,1.6,0.4,2.1,2.1,2.1c0.5,0,1,0,1.5-0.1v3.8c-0.8,0.1-1.9,0.2-2.8,0.2
			c-3,0-5.6-0.7-5.6-4.2V57.9h-2.9v-3.3h2.9v-5.3h4.9V54.7z"/>
		<path d="M193.8,64.7c0.1,3.1,1.6,4.5,4.4,4.5c2,0,3.5-1.2,3.8-2.3h4.3c-1.4,4.2-4.3,6-8.3,6c-5.6,0-9.1-3.8-9.1-9.3
			c0-5.3,3.7-9.4,9.1-9.4c6,0,8.9,5.1,8.6,10.5H193.8z M201.7,61.6c-0.4-2.5-1.5-3.8-3.9-3.8c-3.1,0-4,2.4-4,3.8H201.7z"/>
		<path d="M213.2,66.6c0,2.1,1.8,3,3.7,3c1.4,0,3.2-0.5,3.2-2.3c0-1.5-2-2-5.5-2.7c-2.8-0.6-5.6-1.6-5.6-4.7c0-4.5,3.9-5.7,7.7-5.7
			c3.9,0,7.4,1.3,7.8,5.7h-4.6c-0.1-1.9-1.6-2.4-3.3-2.4c-1.1,0-2.7,0.2-2.7,1.6c0,1.7,2.7,2,5.5,2.6c2.8,0.7,5.6,1.7,5.6,5
			c0,4.7-4,6.2-8.1,6.2c-4.1,0-8.1-1.5-8.3-6.2H213.2z"/>
		<path d="M132.9,80h5.4v10.1l9.6-10.1h6.7l-9.6,9.7l10.5,14.8h-6.8l-7.4-11l-3.1,3.1v7.9h-5.4V80z"/>
		<path d="M157.1,86.7h4.6V90h0.1c0.9-2.2,3.3-3.8,5.7-3.8c0.3,0,0.8,0.1,1.1,0.2V91c-0.4-0.1-1.2-0.2-1.7-0.2
			c-3.6,0-4.8,2.6-4.8,5.7v8h-4.9V86.7z"/>
		<path d="M173.8,96.8c0.1,3.1,1.6,4.5,4.4,4.5c2,0,3.5-1.2,3.8-2.3h4.3c-1.4,4.2-4.3,6-8.3,6c-5.6,0-9.1-3.8-9.1-9.3
			c0-5.3,3.7-9.4,9.1-9.4c6,0,8.9,5.1,8.6,10.5H173.8z M181.7,93.7c-0.4-2.5-1.5-3.8-3.9-3.8c-3.1,0-4,2.4-4,3.8H181.7z"/>
		<path d="M205.8,104.5h-4.6V102h-0.1c-1.2,2-3.4,2.9-5.4,2.9c-5.2,0-6.5-2.9-6.5-7.3V86.7h4.9v10c0,2.9,0.9,4.4,3.1,4.4
			c2.6,0,3.8-1.5,3.8-5.1v-9.3h4.9V104.5z"/>
		<path d="M208.5,100.8l9.2-10.4h-8.5v-3.7h14.9v3.7l-9.2,10.4h9.9v3.7h-16.3V100.8z"/>
	</g>
</g>
<text transform="matrix(1 0 0 1 328.002 63.2092)"><tspan x="0" y="0" class="st1 st2">Landesverband </tspan><tspan x="0" y="40.8" class="st1 st2">Brandenburg e.V.</tspan></text>
</svg>
