<?xml version="1.0" encoding="UTF-8"?>
<svg width="80px" height="65px" viewBox="0 0 80 65" version="1.1" xmlns="http://www.w3.org/2000/svg" xmlns:xlink="http://www.w3.org/1999/xlink">
    <!-- Generator: Sketch 54.1 (76490) - https://sketchapp.com -->
    <title>D4L_Logo+Wordmark_CMYK_blue</title>
    <desc>Created with Sketch.</desc>
    <g id="D4L_Logo+Wordmark_CMYK_blue" stroke="none" stroke-width="1" fill="none" fill-rule="evenodd">
        <path d="M36.8000282,19.8283034 L49.5999153,0.628472722 L36.8000282,0.628472722 L24.0001411,19.8283034 L36.8000282,19.8283034 Z M43.5998801,23.4280423 C40.286314,23.4280423 37.600127,26.1142293 37.600127,29.4280776 C37.600127,32.7416437 40.286314,35.4281129 43.5998801,35.4281129 C46.9134461,35.4281129 49.5999153,32.7416437 49.5999153,29.4280776 C49.5999153,26.1142293 46.9134461,23.4280423 43.5998801,23.4280423 Z M68.799746,24.6283316 L68.799746,0.628472722 L57.9999647,0.628472722 L57.9999647,35.0282046 L80,35.0282046 L80,24.6283316 L68.799746,24.6283316 Z M0,0.228 C9.72028293,0.228 17.5999153,8.10791463 17.5999153,17.8279153 C17.5999153,27.5481983 9.72028293,35.4281129 0,35.4281129 L0,0.228 Z M78.5259556,57.7964476 C78.5259556,55.6586175 77.4464572,54.5167482 75.5990334,54.5167482 C73.6683541,54.5167482 72.5058826,55.8451661 72.4641137,57.9832784 L78.5259556,57.9832784 L78.5259556,57.7964476 Z M80,59.1669166 L72.4641137,59.1669166 C72.4849981,61.5124619 73.7722117,62.9450197 75.7858642,62.9450197 C77.238742,62.9450197 78.2767537,62.1353254 78.7125042,60.723652 L79.937629,61.2217735 C79.2941633,63.152735 77.7786323,64.2277178 75.6820066,64.2277178 C72.7342,64.2277178 71.011236,62.3430407 71.011236,58.8553438 C71.011236,55.4509023 72.7550844,53.3542766 75.6196356,53.3542766 C78.4012136,53.3542766 80,55.0151519 80,58.1703915 L80,59.1669166 Z M69.7632512,54.8074366 L67.0646464,54.8074366 L67.0646464,63.987547 L65.6323708,63.987547 L65.6323708,54.8074366 L63.722576,54.8074366 L63.722576,53.6034785 L65.6323708,53.6034785 L65.6323708,52.1014941 C65.6323708,50.2331858 66.7324714,49.0280988 68.5386908,49.0280988 C68.9953257,49.0280988 69.410474,49.070432 69.7632512,49.1742897 L69.7632512,50.4197344 C69.410474,50.3573634 69.0574145,50.3158768 68.7255217,50.3158768 C67.5627679,50.3158768 67.0646464,50.9390225 67.0646464,52.2880427 L67.0646464,53.6034785 L69.7632512,53.6034785 L69.7632512,54.8074366 Z M59.5713757,63.987547 L61.003369,63.987547 L61.003369,53.6034785 L59.5713757,53.6034785 L59.5713757,63.987547 Z M61.5130616,50.253788 C61.5130616,50.9305559 60.9644224,51.4797595 60.2873723,51.4797595 C59.6103223,51.4797595 59.0614009,50.9305559 59.0614009,50.253788 C59.0614009,49.5767379 59.6103223,49.0278166 60.2873723,49.0278166 C60.9644224,49.0278166 61.5130616,49.5767379 61.5130616,50.253788 Z M54.1101018,63.987547 L55.5420951,63.987547 L55.5420951,49.2679873 L54.1101018,49.2679873 L54.1101018,63.987547 Z M48.0900288,50.9474892 L48.0485421,50.9474892 C47.7996225,51.5494683 47.4911541,52.067063 47.0551214,52.7105287 L43.7751398,57.4230682 C43.3185049,58.1289049 43.0072143,58.5646553 42.6126682,59.000688 L48.0485421,59.000688 L48.0485421,53.0014994 C48.0485421,52.0255764 48.0485421,51.6115571 48.0900288,50.9474892 Z M49.4808177,60.2046461 L49.4808177,63.987547 L48.0485421,63.987547 L48.0485421,60.2046461 L41.0720195,60.2046461 L41.0720195,59.1460322 L47.9472245,49.2679873 L49.4808177,49.2679873 L49.4808177,59.000688 L51.3906126,59.000688 L51.3906126,60.2046461 L49.4808177,60.2046461 Z M37.2953275,59.4573228 L37.2953275,58.7929727 L34.3478031,59.208121 C32.5830702,59.4573228 31.8148625,60.0593019 31.8148625,61.2011713 C31.8148625,62.321874 32.6869278,63.0277107 34.0777168,63.0277107 C36.0081139,63.0277107 37.2953275,61.5748329 37.2953275,59.4573228 Z M30.2993315,61.2426579 C30.2993315,60.2461328 30.7353642,59.4367207 31.5656607,58.9177148 C32.3132662,58.4816821 33.3303935,58.1909937 34.9703844,57.9832784 L37.2744431,57.7134744 L37.2744431,57.547528 C37.2744431,55.4094157 36.527402,54.558517 34.7626691,54.558517 C33.2056515,54.558517 32.250613,55.3679291 32.167922,56.8416913 L30.6106221,56.8416913 C30.7353642,54.703579 32.3547528,53.3542766 34.7420669,53.3542766 C37.5236449,53.3542766 38.7278853,54.6414902 38.7278853,57.6513856 L38.7278853,60.3497081 C38.7278853,61.9690968 38.8314607,63.1363661 39.0597781,63.987547 L37.5445293,63.987547 C37.4406717,63.4273368 37.3783007,62.6749335 37.3576985,61.907008 C36.859577,63.3598858 35.5308768,64.2277178 33.7455418,64.2277178 C31.6695183,64.2277178 30.2993315,63.0277107 30.2993315,61.2426579 Z M22.5907255,53.6043251 L24.5005203,53.6043251 L24.5005203,50.0903816 L25.9536803,50.0903816 L25.9536803,53.6043251 L28.6316829,53.6043251 L28.6316829,54.8080011 L25.9536803,54.8080011 L25.9536803,61.0360715 C25.9536803,62.2606319 26.4932884,62.8005222 27.5727868,62.8005222 C27.987935,62.8005222 28.2786235,62.7587534 28.6316829,62.6757801 L28.6316829,63.9835959 C28.1956503,64.1080557 27.780502,64.1704268 27.1994073,64.1704268 C25.1857549,64.1704268 24.5005203,62.9455842 24.5005203,61.0981603 L24.5005203,54.8080011 L22.5907255,54.8080011 L22.5907255,53.6043251 Z M19.0886353,59.4573228 L19.0886353,58.7929727 L16.1408287,59.208121 C14.376378,59.4573228 13.6081703,60.0593019 13.6081703,61.2011713 C13.6081703,62.321874 14.4802357,63.0277107 15.8710246,63.0277107 C17.8014217,63.0277107 19.0886353,61.5748329 19.0886353,59.4573228 Z M12.0926393,61.2426579 C12.0926393,60.2461328 12.5289542,59.4367207 13.3589685,58.9177148 C14.106574,58.4816821 15.1237013,58.1909937 16.7636922,57.9832784 L19.0677509,57.7134744 L19.0677509,57.547528 C19.0677509,55.4094157 18.3204276,54.558517 16.5559769,54.558517 C14.9989593,54.558517 14.044203,55.3679291 13.9612298,56.8416913 L12.4042122,56.8416913 C12.5289542,54.703579 14.1477784,53.3542766 16.5353747,53.3542766 C19.3169527,53.3542766 20.5211931,54.6414902 20.5211931,57.6513856 L20.5211931,60.3497081 C20.5211931,61.9690968 20.6247685,63.1363661 20.8530859,63.987547 L19.3378371,63.987547 C19.2339795,63.4273368 19.1718907,62.6749335 19.1507241,61.907008 C18.6528848,63.3598858 17.3241846,64.2277178 15.5388496,64.2277178 C13.4631083,64.2277178 12.0926393,63.0277107 12.0926393,61.2426579 Z M7.72243487,59.0212902 L7.72243487,58.5855397 C7.72243487,56.2188278 6.5805655,54.6414902 4.65016845,54.6414902 C2.69888699,54.6414902 1.53641543,56.1982256 1.53641543,58.7929727 C1.53641543,61.3671177 2.69888699,62.9450197 4.62928404,62.9450197 C6.53936112,62.9450197 7.72243487,61.3256311 7.72243487,59.0212902 Z M0,58.7929727 C0,55.5959643 1.80593724,53.3542766 4.44273543,53.3542766 C5.93738204,53.3542766 7.07896918,54.0392289 7.70183268,55.4923889 L7.70183268,49.2679873 L9.15471046,49.2679873 L9.15471046,63.987547 L7.78480588,63.987547 L7.78480588,61.782266 C7.1828268,63.3183992 5.93738204,64.2277178 4.2765068,64.2277178 C1.70236184,64.2277178 0,62.0314678 0,58.7929727 L0,58.7929727 Z" id="Fill-1" fill="#000E7E"></path>
    </g>
</svg>